# xmcd CD database file
#
# Track frame offsets:
#	150
#	27221
#	51841
#	54391
#	95224
#	102346
#	119237
#	154902
#	180119
#	199275
#
# Disc length: 3055 seconds
#
# Revision: 0
# Processed by: cddbd v1.5.2PL0 Copyright (c) Steve Scherf et al.
# Submitted via: CDex 1.70beta2
#
DISCID=8a0bed0a
DTITLE=black and white cooperation - Synergies
DYEAR=2009
DGENRE=Jazz
TTITLE0=Indian Summer
TTITLE1=Trip To Yellow
TTITLE2=Introduction No 7
TTITLE3=Where Sholud It Lead
TTITLE4=Sunny Impressions
TTITLE5=Caribbean Mood
TTITLE6=Kalahari
TTITLE7=Criminale
TTITLE8=Jamaican Smile
TTITLE9=Coopt
EXTD=YEAR: 2009
EXTT0=
EXTT1=
EXTT2=
EXTT3=
EXTT4=
EXTT5=
EXTT6=
EXTT7=
EXTT8=
EXTT9=
PLAYORDER=
